<svg width="47" height="64" viewBox="0 0 47 64" fill="none" xmlns="http://www.w3.org/2000/svg">
<g clip-path="url(#clip0_138_23)">
<path d="M0.0246582 51.6365L7.97214 1.23048C8.07068 0.610354 8.55354 0.126948 9.17436 0.0195245C9.79518 -0.087899 10.416 0.21484 10.7166 0.766606L18.935 15.9622L22.2116 9.78042C22.4629 9.30189 22.9654 9.00404 23.5123 9.00404C24.0593 9.00404 24.5569 9.30189 24.8131 9.78042L46.9951 51.6365H0.0246582Z" fill="#FFA000"/>
<path d="M27.4836 32.0024L18.935 15.9573L0.0246582 51.6365L27.4836 32.0024Z" fill="#F57C00"/>
<path d="M47 51.6364L40.9101 14.3019C40.8165 13.7648 40.4321 13.3253 39.9099 13.1593C39.3876 12.9933 38.816 13.13 38.4268 13.5157L0.0246582 51.6364L21.2705 63.4432C22.6057 64.1806 24.2317 64.1806 25.562 63.4432L47 51.6364Z" fill="#FFCA28"/>
<path d="M40.9101 14.302C40.8164 13.7649 40.4321 13.3254 39.9098 13.1594C39.3876 12.9934 38.816 13.1301 38.4268 13.5158L30.8045 21.0892L24.8131 9.78042C24.5618 9.30189 24.0592 9.00404 23.5123 9.00404C22.9654 9.00404 22.4678 9.30189 22.2116 9.78042L18.935 15.9622L10.7165 0.766606C10.4209 0.21484 9.79516 -0.087899 9.17434 0.0195245C8.55352 0.126948 8.06573 0.615237 7.97211 1.23048L0.0246357 51.6365H0L0.0246357 51.6658L0.231576 51.7684L38.412 13.8869C38.8012 13.5012 39.3728 13.3596 39.9 13.5256C40.4272 13.6916 40.8115 14.1311 40.9002 14.6731L46.9359 51.6707L46.9951 51.6365L40.9101 14.302ZM0.0936157 51.5682L7.97211 1.59181C8.06573 0.971687 8.55352 0.483399 9.17434 0.380858C9.79516 0.278318 10.416 0.576174 10.7165 1.12794L18.935 16.3235L22.2116 10.1417C22.4628 9.66323 22.9654 9.36537 23.5123 9.36537C24.0592 9.36537 24.5569 9.66323 24.8131 10.1417L30.6862 21.2064L0.0936157 51.5682Z" fill="white" fill-opacity="0.2"/>
<path opacity="0.2" d="M25.5669 63.0868C24.2317 63.8242 22.6057 63.8242 21.2754 63.0868L0.0788124 51.3142L0.029541 51.6365L21.2754 63.4433C22.6106 64.1806 24.2366 64.1806 25.5669 63.4433L47 51.6365L46.9458 51.2996L25.5669 63.0868Z" fill="#A52714"/>
<path d="M40.8509 14.3069C40.7573 13.7697 40.373 13.3303 39.8556 13.1643C39.3334 12.9982 38.7667 13.135 38.3775 13.5207L30.7799 21.0941L24.8082 9.79018C24.5569 9.31166 24.0543 9.0138 23.5123 9.0138C22.9703 9.0138 22.4727 9.31166 22.2165 9.79018L18.9498 15.9719L10.7609 0.781255C10.4652 0.229488 9.84443 -0.0732506 9.22361 0.0341729C8.60279 0.141596 8.11993 0.629885 8.02632 1.24513L0.108398 51.6268L21.2803 63.4287C22.6107 64.166 24.2317 64.166 25.5571 63.4287L46.9113 51.6268L40.8509 14.3069Z" fill="url(#paint0_linear_138_23)"/>
</g>
<defs>
<linearGradient id="paint0_linear_138_23" x1="-1.5282" y1="10.9127" x2="56.6532" y2="41.8808" gradientUnits="userSpaceOnUse">
<stop stop-color="white" stop-opacity="0.1"/>
<stop offset="0.14" stop-color="white" stop-opacity="0.08"/>
<stop offset="0.61" stop-color="white" stop-opacity="0.02"/>
<stop offset="1" stop-color="white" stop-opacity="0"/>
</linearGradient>
<clipPath id="clip0_138_23">
<rect width="47" height="64" fill="white"/>
</clipPath>
</defs>
</svg>
