<svg width="35" height="35" viewBox="0 0 35 35" fill="none" xmlns="http://www.w3.org/2000/svg">
<path d="M17.4999 3.44287C9.74117 3.44287 3.45135 9.73655 3.45135 17.4997C3.45135 25.2627 9.74117 31.5571 17.4999 31.5571C25.2586 31.5571 31.5489 25.2629 31.5489 17.4997C31.5487 9.73655 25.2586 3.44287 17.4999 3.44287ZM22.2977 12.4347C22.2977 12.5689 22.1891 12.6778 22.0548 12.6778H18.6348V14.517H22.0546C22.1889 14.517 22.2975 14.6259 22.2975 14.76V18.1815C22.2975 18.3159 22.1889 18.4246 22.0546 18.4246H18.8777V25.933C18.8777 26.0675 18.7691 26.1761 18.6348 26.1761H15.4028C15.2685 26.1761 15.1599 26.0675 15.1599 25.933V18.4248H12.9452C12.8109 18.4248 12.7023 18.3162 12.7023 18.1818V14.7603C12.7023 14.6261 12.8109 14.5172 12.9452 14.5172H15.1599V13.1299C15.1599 13.1099 15.1623 13.0907 15.1667 13.0722C15.1686 11.096 15.5911 8.83506 18.8269 8.82485C18.834 8.82436 18.8415 8.82388 18.8488 8.82388H22.0546C22.1889 8.82388 22.2975 8.93277 22.2975 9.06693L22.2977 12.4347Z" fill="black"/>
</svg>
