<?xml version="1.0" ?><!DOCTYPE svg  PUBLIC '-//W3C//DTD SVG 1.1//EN'  'http://www.w3.org/Graphics/SVG/1.1/DTD/svg11.dtd'><svg enable-background="new 0 0 144.083 144" height="144px" id="Facebook" version="1.1" viewBox="0 0 144.083 144" width="144.083px" xml:space="preserve" xmlns="http://www.w3.org/2000/svg" xmlns:xlink="http://www.w3.org/1999/xlink"><path d="M72.041,14.165c-31.94,0-57.833,25.894-57.833,57.834c0,31.939,25.893,57.836,57.833,57.836s57.835-25.896,57.835-57.836  C129.875,40.059,103.981,14.165,72.041,14.165z M91.792,51.16c0,0.552-0.447,1-1,1H76.713v7.567h14.078c0.553,0,1,0.448,1,1v14.077  c0,0.553-0.447,1-1,1H77.713v30.892c0,0.553-0.447,1-1,1H63.408c-0.553,0-1-0.447-1-1V75.805h-9.117c-0.553,0-1-0.447-1-1V60.728  c0-0.552,0.447-1,1-1h9.117V54.02c0-0.082,0.01-0.161,0.028-0.237c0.008-8.131,1.747-17.433,15.068-17.475  c0.029-0.002,0.06-0.004,0.09-0.004h13.197c0.553,0,1,0.448,1,1V51.16z"/></svg>