<svg width="35" height="35" viewBox="0 0 35 35" fill="none" xmlns="http://www.w3.org/2000/svg">
<path d="M17.5 3.5C9.7685 3.5 3.5 9.7685 3.5 17.5C3.5 24.0602 8.01733 29.5493 14.1073 31.0683C14.042 30.8793 14 30.66 14 30.3882V27.9953C13.4318 27.9953 12.4798 27.9953 12.2407 27.9953C11.2828 27.9953 10.4312 27.5835 10.0182 26.8182C9.55967 25.9677 9.48033 24.6668 8.344 23.8712C8.00683 23.6063 8.2635 23.3042 8.652 23.345C9.3695 23.548 9.9645 24.0403 10.5245 24.7707C11.0822 25.5022 11.3447 25.6678 12.3865 25.6678C12.8917 25.6678 13.6477 25.6387 14.3593 25.5267C14.742 24.5548 15.4035 23.66 16.212 23.2377C11.55 22.7582 9.32517 20.4388 9.32517 17.29C9.32517 15.9343 9.90267 14.623 10.8838 13.5182C10.5618 12.4215 10.157 10.185 11.0075 9.33333C13.1052 9.33333 14.3733 10.6937 14.6778 11.0612C15.7232 10.703 16.8712 10.5 18.0775 10.5C19.2862 10.5 20.4388 10.703 21.4865 11.0635C21.7875 10.6983 23.0568 9.33333 25.1592 9.33333C26.0132 10.1862 25.6037 12.432 25.2782 13.5263C26.2535 14.6288 26.8275 15.9367 26.8275 17.29C26.8275 20.4365 24.6062 22.7547 19.9512 23.2365C21.2322 23.905 22.1667 25.7833 22.1667 27.1985V30.3882C22.1667 30.5095 22.1398 30.597 22.1258 30.7008C27.5812 28.7887 31.5 23.6087 31.5 17.5C31.5 9.7685 25.2315 3.5 17.5 3.5Z" fill="black"/>
</svg>
