<?xml version="1.0" ?><!DOCTYPE svg  PUBLIC '-//W3C//DTD SVG 1.1//EN'  'http://www.w3.org/Graphics/SVG/1.1/DTD/svg11.dtd'><svg enable-background="new 0 0 144.083 144" height="144px" id="linkedin" version="1.1" viewBox="0 0 144.083 144" width="144.083px" xml:space="preserve" xmlns="http://www.w3.org/2000/svg" xmlns:xlink="http://www.w3.org/1999/xlink"><path d="M72.04,14.166c-31.939,0-57.833,25.894-57.833,57.833c0,31.94,25.893,57.835,57.833,57.835  c31.941,0,57.836-25.895,57.836-57.835C129.875,40.06,103.981,14.166,72.04,14.166z M48.042,40.25c3.934,0,7.125,2.91,7.125,6.5  s-3.191,6.5-7.125,6.5c-3.936,0-7.125-2.91-7.125-6.5S44.106,40.25,48.042,40.25z M55.221,95.845H41.143V59.11h14.078V95.845z   M103.059,95.845H88.913v-20.2c0-2.306-0.428-3.938-1.281-4.896c-0.854-0.956-2.053-1.436-3.596-1.436  c-1.707,0-3.092,0.646-4.152,1.938c-1.061,1.292-1.59,3.609-1.59,6.953v17.641H64.215V59.11h13.109v5.983  c1.959-2.443,3.943-4.19,5.949-5.24c2.006-1.049,4.449-1.573,7.332-1.573c3.898,0,6.947,1.158,9.15,3.476  c2.201,2.317,3.303,5.897,3.303,10.74V95.845z"/></svg>