<svg width="35" height="35" viewBox="0 0 35 35" fill="none" xmlns="http://www.w3.org/2000/svg">
<path d="M17.4996 3.44312C9.74117 3.44312 3.45111 9.7368 3.45111 17.4997C3.45111 25.2629 9.74092 31.5569 17.4996 31.5569C25.2586 31.5569 31.5489 25.2629 31.5489 17.4997C31.5487 9.7368 25.2586 3.44312 17.4996 3.44312ZM11.6702 9.78298C12.6258 9.78298 13.4009 10.4903 13.4009 11.3628C13.4009 12.2354 12.6258 12.9427 11.6702 12.9427C10.714 12.9427 9.93939 12.2354 9.93939 11.3628C9.93939 10.4903 10.714 9.78298 11.6702 9.78298ZM13.414 23.2957H9.99428V14.367H13.414V23.2957ZM25.0346 23.2957H21.5984V18.3859C21.5984 17.8254 21.4944 17.4288 21.2872 17.1959C21.0797 16.9636 20.7885 16.8469 20.4137 16.8469C19.999 16.8469 19.6626 17.0039 19.4051 17.3179C19.1473 17.632 19.0188 18.1951 19.0188 19.0079V23.2957H15.5988V14.367H18.7832V15.8212C19.2591 15.2274 19.741 14.8028 20.2283 14.5476C20.7156 14.2926 21.309 14.1653 22.0094 14.1653C22.9563 14.1653 23.6969 14.4467 24.232 15.0101C24.7667 15.5733 25.0344 16.4434 25.0344 17.6205L25.0346 23.2957Z" fill="black"/>
</svg>
