<svg width="35" height="35" viewBox="0 0 35 35" fill="none" xmlns="http://www.w3.org/2000/svg">
<path d="M17.5 3.5C9.76796 3.5 3.5 9.76796 3.5 17.5C3.5 25.232 9.76796 31.5 17.5 31.5C25.232 31.5 31.5 25.232 31.5 17.5C31.5 9.76796 25.232 3.5 17.5 3.5ZM24.882 23.5362L24.3161 24.1021C24.3031 24.1152 24.2891 24.127 24.2748 24.1376C24.2387 24.178 24.2013 24.2172 24.1628 24.2555C23.4677 24.9505 22.4958 25.3048 21.3363 25.3048C20.7281 25.3052 20.0688 25.2075 19.3701 25.0105C17.4092 24.4577 15.3555 23.1796 13.5878 21.4116C11.82 19.6439 10.542 17.5902 9.98884 15.6293C9.4164 13.5984 9.68458 11.8963 10.7445 10.8363C10.7831 10.7977 10.8223 10.7604 10.8628 10.7243C10.873 10.71 10.8845 10.6963 10.8976 10.6836L11.4635 10.1176C11.7364 9.8448 12.0988 9.69453 12.4846 9.69453C12.8704 9.69453 13.2328 9.8448 13.5056 10.1176L15.676 12.2883C16.2391 12.8514 16.2391 13.7673 15.676 14.3301L14.7464 15.26C14.5121 15.4943 14.5121 15.8757 14.7464 16.11L18.89 20.2533C19.1168 20.4801 19.5129 20.4801 19.74 20.2533L20.6696 19.3237C21.2327 18.7612 22.1489 18.7606 22.7117 19.3234L24.8824 21.494C25.1549 21.7666 25.3052 22.1293 25.3052 22.5148C25.3052 22.9009 25.1549 23.2633 24.882 23.5362Z" fill="black"/>
</svg>
