<svg width="35" height="35" viewBox="0 0 35 35" fill="none" xmlns="http://www.w3.org/2000/svg">
<path d="M16.9963 15.6813C16.6827 16.1346 16.473 16.8682 16.3725 17.8622C16.315 18.5394 16.3669 19.0537 16.5259 19.3894C16.6731 19.7002 16.8927 19.8452 17.2169 19.8452C17.4306 19.8452 17.6254 19.7487 17.8123 19.5502C18.008 19.3415 18.1751 19.0363 18.3083 18.6424L18.6222 15.0634C18.5111 15.0426 18.3969 15.032 18.2809 15.032C17.7184 15.032 17.2984 15.2445 16.9963 15.6813Z" fill="black"/>
<path d="M17.5 3.5C9.76796 3.5 3.5 9.76796 3.5 17.5C3.5 25.232 9.76796 31.5 17.5 31.5C25.232 31.5 31.5 25.232 31.5 17.5C31.5 9.76796 25.232 3.5 17.5 3.5ZM24.5569 16.9213C24.5012 18.3708 24.1326 19.5459 23.4609 20.4139C22.778 21.2952 21.8559 21.7423 20.7197 21.7423C20.2474 21.7423 19.8224 21.6381 19.4572 21.4321C19.1551 21.2623 18.9056 21.0314 18.7133 20.7452C18.1661 21.3858 17.449 21.71 16.5785 21.71C16.0216 21.71 15.5266 21.5432 15.1082 21.2147C14.6925 20.8886 14.3845 20.4216 14.1929 19.8268C14.0044 19.2419 13.9456 18.5708 14.0184 17.8332C14.1854 16.441 14.6409 15.3064 15.3729 14.457C16.1149 13.5962 17.0383 13.1597 18.1172 13.1597C18.9457 13.1597 19.6703 13.3551 20.2711 13.7405L20.8653 14.1366L20.4397 19.0316C20.3936 19.4087 20.4388 19.674 20.5732 19.8259C20.6771 19.9435 20.8401 20.0007 21.0716 20.0007C21.4766 20.0007 21.8132 19.7372 22.101 19.1952C22.4022 18.6265 22.5708 17.8848 22.6025 16.9913C22.6928 15.2158 22.3238 13.8317 21.5065 12.8747C20.6926 11.9224 19.478 11.4392 17.8964 11.4392C16.8899 11.4392 15.9836 11.699 15.2028 12.2117C14.42 12.7257 13.7912 13.4649 13.3342 14.4082C12.8735 15.3586 12.6103 16.4578 12.5515 17.6748C12.4665 19.5353 12.8399 20.9736 13.6612 21.9498C14.4776 22.9208 15.7264 23.413 17.3728 23.413C17.8183 23.413 18.2977 23.3604 18.798 23.2565C19.2973 23.1529 19.7083 23.0306 20.0188 22.8937L20.1914 22.8178L20.5588 24.4648L20.4689 24.5236C20.122 24.7511 19.6529 24.9356 19.0736 25.0724C18.4993 25.2087 17.916 25.2778 17.3395 25.2778C15.8306 25.2778 14.5345 24.9835 13.4876 24.4032C12.4339 23.8193 11.6393 22.9426 11.126 21.7983C10.6167 20.6634 10.3861 19.2721 10.4415 17.6621C10.5078 16.1389 10.8646 14.7554 11.5027 13.5486C12.1433 12.3368 13.0328 11.3857 14.1462 10.7218C15.2594 10.0585 16.5318 9.72222 17.9287 9.72222C19.325 9.72222 20.5483 10.0168 21.5656 10.5977C22.5873 11.1813 23.366 12.0319 23.8793 13.1255C24.3899 14.2122 24.6173 15.4893 24.5569 16.9213Z" fill="black"/>
</svg>
