<svg width="35" height="35" viewBox="0 0 35 35" fill="none" xmlns="http://www.w3.org/2000/svg">
<path d="M17.5 3.5C9.76719 3.5 3.5 9.76719 3.5 17.5C3.5 25.2328 9.76719 31.5 17.5 31.5C25.2328 31.5 31.5 25.2328 31.5 17.5C31.5 9.76719 25.2328 3.5 17.5 3.5ZM20.6281 24.5984C19.9664 24.5984 19.343 24.4344 18.7961 24.1391C18.4023 24.2102 17.9922 24.2484 17.5711 24.2484C13.8852 24.2484 10.8937 21.257 10.8937 17.5711C10.8937 17.1117 10.9375 16.6633 11.0305 16.2312C10.6969 15.657 10.5 14.9898 10.5 14.2734C10.5 12.1352 12.2336 10.4016 14.3719 10.4016C15.1266 10.4016 15.8375 10.6203 16.4336 10.9977C16.8055 10.932 17.1883 10.8992 17.5766 10.8992C21.2625 10.8992 24.2539 13.8906 24.2539 17.5766C24.2539 18.0687 24.1992 18.5445 24.1008 19.0094C24.3578 19.5289 24.5055 20.1141 24.5055 20.7266C24.5 22.8648 22.7664 24.5984 20.6281 24.5984Z" fill="black"/>
<path d="M20.4422 17.3032C20.1305 17.1008 19.7422 16.9258 19.2992 16.7836C18.8617 16.6415 18.3641 16.5157 17.8227 16.3954C17.3961 16.2969 17.0844 16.2204 16.8984 16.1711C16.718 16.1219 16.5375 16.0508 16.3625 15.9633C16.193 15.8758 16.0617 15.7774 15.9633 15.6625C15.8758 15.5532 15.832 15.4274 15.832 15.2743C15.832 15.0282 15.9687 14.8149 16.2477 14.6344C16.5375 14.443 16.9258 14.35 17.407 14.35C17.9211 14.35 18.2984 14.4375 18.5227 14.6071C18.7523 14.7821 18.9547 15.0336 19.1242 15.3508C19.2664 15.5969 19.3977 15.7719 19.5234 15.8813C19.6547 16.0016 19.8516 16.0618 20.0977 16.0618C20.3711 16.0618 20.6008 15.9633 20.7812 15.7774C20.9617 15.586 21.0547 15.3727 21.0547 15.1321C21.0547 14.886 20.9836 14.629 20.8469 14.3719C20.7102 14.1149 20.4914 13.8743 20.1961 13.6446C19.9063 13.4149 19.5344 13.229 19.0914 13.0922C18.6539 12.9555 18.1289 12.8899 17.5328 12.8899C16.7891 12.8899 16.1273 12.9938 15.575 13.2016C15.0117 13.4094 14.5797 13.7102 14.2789 14.0985C13.9781 14.4922 13.825 14.9461 13.825 15.4493C13.825 15.9797 13.9727 16.4282 14.257 16.7891C14.5414 17.1446 14.9242 17.4235 15.4055 17.6313C15.8758 17.8282 16.4609 18.0086 17.1555 18.1563C17.6641 18.2657 18.0797 18.3641 18.3805 18.4625C18.6703 18.5555 18.9109 18.6868 19.0914 18.8563C19.2664 19.0204 19.3484 19.2282 19.3484 19.4907C19.3484 19.8243 19.1898 20.0977 18.8563 20.3219C18.5172 20.5571 18.0633 20.6719 17.5109 20.6719C17.1117 20.6719 16.7836 20.6118 16.543 20.4969C16.3023 20.3821 16.1164 20.2399 15.9852 20.0649C15.8484 19.8844 15.7227 19.6547 15.6023 19.3868C15.4984 19.1352 15.3617 18.9438 15.2086 18.8125C15.05 18.6758 14.8477 18.6102 14.618 18.6102C14.3391 18.6102 14.1039 18.6977 13.9234 18.8672C13.7375 19.0422 13.6445 19.2555 13.6445 19.4961C13.6445 19.8899 13.7867 20.2946 14.0711 20.7047C14.35 21.1094 14.7219 21.4375 15.1703 21.6782C15.7992 22.0118 16.6031 22.1813 17.5602 22.1813C18.3586 22.1813 19.0586 22.0555 19.6437 21.8149C20.2344 21.5688 20.6938 21.2243 21 20.7868C21.3117 20.3493 21.4648 19.8461 21.4648 19.2993C21.4648 18.8399 21.3719 18.4461 21.1914 18.1235C21.0164 17.779 20.7648 17.511 20.4422 17.3032Z" fill="black"/>
</svg>
