<svg width="35" height="35" viewBox="0 0 35 35" fill="none" xmlns="http://www.w3.org/2000/svg">
<g opacity="0.5">
<path d="M17.5 3.5C9.76796 3.5 3.5 9.76796 3.5 17.5C3.5 25.232 9.76796 31.5 17.5 31.5C25.232 31.5 31.5 25.232 31.5 17.5C31.5 9.76796 25.232 3.5 17.5 3.5ZM25.2731 20.8021C25.1872 22.4616 23.8526 23.8199 22.195 23.9341C21.8005 23.9612 21.4194 23.9188 21.0628 23.8184C20.659 23.7045 20.2278 23.7325 19.834 23.8768C19.1063 24.1438 18.3201 24.2897 17.4997 24.2897C13.7499 24.2897 10.71 21.2498 10.71 17.5C10.71 17.4975 10.71 17.495 10.71 17.4925C10.7106 17.0716 10.5961 16.6547 10.3494 16.3137C9.9232 15.7245 9.68551 14.9896 9.72658 14.1976C9.81244 12.5381 11.1471 11.1798 12.8047 11.0656C13.1992 11.0385 13.5803 11.0808 13.9368 11.1813C14.3407 11.2952 14.7719 11.2672 15.1657 11.1228C15.8937 10.8559 16.6796 10.71 17.5 10.71C21.2498 10.71 24.2897 13.7499 24.2897 17.4997C24.2897 17.5022 24.2897 17.5047 24.2897 17.5072C24.2891 17.9281 24.4036 18.3447 24.6503 18.686C25.0768 19.2755 25.3142 20.0104 25.2731 20.8021Z" fill="black"/>
<path d="M17.6919 14.6499C18.7852 14.7538 19.5147 15.5655 19.539 15.5966C19.8744 16.0455 20.5097 16.1407 20.962 15.8081C21.4165 15.474 21.5139 14.835 21.1801 14.3804C21.1269 14.308 19.852 12.6074 17.6922 12.6074C14.2716 12.6074 14.0059 14.7398 14.0059 15.3934C14.0059 17.4922 15.974 17.9601 17.276 18.27C18.8122 18.6352 19.194 18.9504 19.1439 19.3794C19.1031 19.7306 18.787 20.1422 17.4038 20.0984C16.2552 20.062 15.4442 19.1305 15.441 19.1268C15.0895 18.6859 14.4467 18.6134 14.0059 18.965C13.5647 19.3165 13.4926 19.9593 13.8441 20.4001C13.9007 20.4711 15.2569 22.1405 17.4038 22.1405C18.1026 22.1405 18.9134 22.0988 19.6295 21.7905C20.6335 21.358 21.1863 20.5019 21.1863 19.3791C21.1863 17.1002 19.1174 16.6083 17.7485 16.2826C16.2826 15.9341 16.048 15.777 16.048 15.31C16.048 14.8695 16.865 14.5712 17.6919 14.6499Z" fill="black"/>
</g>
</svg>
