<svg width="35" height="35" viewBox="0 0 35 35" fill="none" xmlns="http://www.w3.org/2000/svg">
<g clip-path="url(#clip0_1_30)">
<path d="M17.5 2.91669C9.47919 2.91669 2.91669 9.47919 2.91669 17.5C2.91669 25.5209 9.47919 32.0834 17.5 32.0834C25.5209 32.0834 32.0834 25.5209 32.0834 17.5C32.0834 9.47919 25.5209 2.91669 17.5 2.91669ZM24.6459 11.8125L22.1667 23.7709C22.0209 24.6459 21.4375 24.7917 20.8542 24.3542L17.0625 21.4375C16.1875 22.3125 15.3125 23.0417 15.1667 23.3334C14.875 23.4792 14.7292 23.7709 14.4375 23.7709C14 23.7709 14 23.4792 13.8542 23.1875L12.5417 18.8125L8.60419 17.5C7.72919 17.2084 7.72919 16.625 8.75002 16.1875L23.625 10.5C24.2084 10.3542 24.9375 10.6459 24.6459 11.8125ZM21.1459 13.125L12.8334 18.375L14.1459 22.75L14.4375 19.8334L21.5834 13.4167C22.0209 12.9792 21.7292 12.9792 21.1459 13.125Z" fill="black"/>
</g>
<defs>
<clipPath id="clip0_1_30">
<rect width="35" height="35" fill="white"/>
</clipPath>
</defs>
</svg>
