<svg width="35" height="35" viewBox="0 0 35 35" fill="none" xmlns="http://www.w3.org/2000/svg">
<path d="M17.5 3.5C9.7685 3.5 3.5 9.7685 3.5 17.5C3.5 25.2315 9.7685 31.5 17.5 31.5C25.2315 31.5 31.5 25.2315 31.5 17.5C31.5 9.7685 25.2315 3.5 17.5 3.5ZM24.9212 22.1282L22.7418 22.1585C22.7418 22.1585 22.2717 22.2507 21.6568 21.826C20.8413 21.266 20.0725 19.8088 19.4728 19.9978C18.865 20.1915 18.8837 21.5028 18.8837 21.5028C18.8837 21.5028 18.8883 21.7338 18.7495 21.8843C18.599 22.0465 18.3038 22.0302 18.3038 22.0302H17.3273C17.3273 22.0302 15.1737 22.2087 13.2755 20.23C11.2082 18.0728 9.38117 13.8157 9.38117 13.8157C9.38117 13.8157 9.27383 13.5473 9.38817 13.4097C9.51767 13.258 9.8665 13.2533 9.8665 13.2533L12.1998 13.2417C12.1998 13.2417 12.4192 13.2802 12.5778 13.3968C12.7073 13.4925 12.7808 13.6722 12.7808 13.6722C12.7808 13.6722 13.1577 14.6277 13.6582 15.4933C14.6335 17.1803 15.0862 17.5502 15.4175 17.3693C15.9005 17.1057 15.7558 14.9847 15.7558 14.9847C15.7558 14.9847 15.7652 14.2147 15.5132 13.8717C15.3172 13.6045 14.9485 13.5252 14.7875 13.5053C14.6557 13.4878 14.8703 13.1822 15.1503 13.0445C15.5703 12.8392 16.3123 12.8275 17.1885 12.8357C17.871 12.8427 18.0682 12.8847 18.3342 12.95C19.1392 13.1448 18.8662 13.8962 18.8662 15.6987C18.8662 16.2762 18.7623 17.0882 19.1777 17.3553C19.3573 17.4708 19.7948 17.3728 20.8857 15.5132C21.4048 14.6312 21.7933 13.5952 21.7933 13.5952C21.7933 13.5952 21.8785 13.4108 22.0103 13.3315C22.1457 13.2498 22.3277 13.2755 22.3277 13.2755L24.7835 13.2603C24.7835 13.2603 25.5208 13.1717 25.641 13.5065C25.767 13.8565 25.3657 14.6743 24.3623 16.0125C22.715 18.2105 22.5318 18.0063 23.9003 19.278C25.207 20.4925 25.4765 21.0828 25.522 21.1575C26.0622 22.057 24.9212 22.1282 24.9212 22.1282Z" fill="black"/>
</svg>
