<svg width="65" height="65" viewBox="0 0 65 65" fill="none" xmlns="http://www.w3.org/2000/svg">
<g clip-path="url(#clip0_1_6)">
<mask id="mask0_1_6" style="mask-type:luminance" maskUnits="userSpaceOnUse" x="0" y="0" width="65" height="65">
<path d="M0 0H65V65H0V0Z" fill="white"/>
</mask>
<g mask="url(#mask0_1_6)">
<path d="M32.5 0L0 10.79L4.95703 50.7975L32.5 65L60.043 50.7975L65 10.79L32.5 0Z" fill="url(#paint0_linear_1_6)"/>
<path d="M32.5 1.54761L1.29059 11.8238L6.05077 49.9262L32.5 63.4524L58.9492 49.9262L63.7094 11.8238L32.5 1.54761Z" fill="url(#paint1_linear_1_6)"/>
<path d="M32.5 8.38794L12.9899 48.7808H20.2643L24.1864 39.7427H40.7465L44.6686 48.7808H51.943L32.5 8.38794ZM38.1988 34.1712H26.8012L32.5 21.5117L38.1988 34.1712Z" fill="white"/>
</g>
</g>
<defs>
<linearGradient id="paint0_linear_1_6" x1="32.5" y1="0" x2="32.5" y2="65" gradientUnits="userSpaceOnUse">
<stop stop-color="white" stop-opacity="0.16"/>
<stop offset="0.333" stop-color="#D9D9D9" stop-opacity="0.06"/>
<stop offset="0.656" stop-color="#D9D9D9" stop-opacity="0"/>
<stop offset="1" stop-color="#D9D9D9" stop-opacity="0"/>
</linearGradient>
<linearGradient id="paint1_linear_1_6" x1="1.29059" y1="30.119" x2="63.7194" y2="30.418" gradientUnits="userSpaceOnUse">
<stop stop-color="#F926E1"/>
<stop offset="1" stop-color="#2AB5FB"/>
</linearGradient>
<clipPath id="clip0_1_6">
<rect width="65" height="65" fill="white"/>
</clipPath>
</defs>
</svg>
