<svg width="65" height="65" viewBox="0 0 65 65" fill="none" xmlns="http://www.w3.org/2000/svg">
<g clip-path="url(#clip0_3_5)">
<path d="M62.1908 33.1329C51.8609 33.3085 54.0125 38.9725 46.7325 40.4049C39.337 41.8601 38.1695 24.7605 30.7759 24.7605C23.3813 24.7605 21.7433 41.3709 12.4844 52.7741L12.2202 53.0969L32.0713 63.0221L62.1908 47.9617V33.1329Z" fill="#36A2EB"/>
<path d="M62.1905 32.6173C58.7325 28.7733 56.3869 24.3541 51.3407 24.3541C42.4106 24.3541 44.7603 36.9721 34.8909 36.9721C25.0205 36.9721 23.9828 23.3997 12.8014 36.1581C9.23851 40.2233 6.37065 44.7561 4.11792 49.0453L32.071 63.0225L62.1905 47.9621V32.6173Z" fill="#FFCE56"/>
<path opacity="0.8" d="M1.95068 37.8442C5.33947 29.7158 6.80204 23.1326 13.2716 23.1326C23.141 23.1326 25.4903 47.1482 33.9511 44.705C42.4107 42.263 41.4704 29.2374 54.6307 29.2374C57.1356 29.2374 59.6931 30.5666 62.1911 32.7166V47.9618L32.0716 63.0222L1.95115 47.9618V37.8442H1.95068Z" fill="#FE6184"/>
<path d="M32.0476 64.9105L0.0476074 48.9109V16.9105L32.0476 0.910522L64.0476 16.9105V48.9105L32.0476 64.9105ZM3.80723 47.0309L32.0476 61.1513L60.288 47.0309V18.7905L32.0476 4.67012L3.80723 18.7905V47.0309Z" fill="#E7E9ED"/>
</g>
<defs>
<clipPath id="clip0_3_5">
<rect width="64" height="64" fill="white" transform="translate(0.0476074 0.910522)"/>
</clipPath>
</defs>
</svg>
