<svg width="64" height="64" viewBox="0 0 64 64" fill="none" xmlns="http://www.w3.org/2000/svg">
<g clip-path="url(#clip0_3_10)">
<path fill-rule="evenodd" clip-rule="evenodd" d="M32.0642 0L2.16522 10.3785L6.44557 50.0449L32.0642 64V0Z" fill="#412846"/>
<path fill-rule="evenodd" clip-rule="evenodd" d="M31.9358 0L61.8348 10.3785L57.5544 50.0449L31.9358 64V0Z" fill="#4B314F"/>
<path fill-rule="evenodd" clip-rule="evenodd" d="M46.9027 21.9001L46.8973 21.8831C48.2625 23.4026 48.9638 25.2069 49.001 27.2959C49.0383 29.3849 48.337 31.5886 46.8812 33.9001C47.9693 33.0542 49.2258 31.2284 50.6468 28.4437C51.2606 34.0871 48.98 38.3738 43.7836 41.3096C45.4426 41.1566 47.6453 40.0643 50.3773 38.0289C47.4619 45.0479 42.1015 48.7511 34.296 49.1388C26.7524 49.1368 21.8655 44.6035 21.8693 44.6064C18.768 42.1926 16.6341 39.1503 15.475 35.4931C13.6201 33.4674 13.6016 33.2502 13.4102 32.4408C13.2189 31.6313 13.5312 31.4052 14.0745 30.6131C14.4368 30.0851 14.5221 29.3255 14.336 28.348C13.8742 27.7075 13.6083 26.7046 13.5382 25.339C13.5382 24.679 13.9786 23.9827 14.8595 23.2501C15.7403 22.5174 16.2808 21.954 16.4765 21.5661C16.6259 21.3546 16.6836 20.4377 16.6496 18.8154C16.6404 17.222 17.5252 16.3551 19.3038 16.2147C21.9715 16.004 23.4761 13.9977 24.3142 13.0852C24.873 12.4769 25.7 12.1812 26.743 12.1756C28.2115 12.1067 29.5476 12.6696 30.6986 13.8313C33.5654 13.683 36.5019 14.4561 39.4773 16.131C43.7057 18.6428 46.0133 21.3628 46.4002 24.2775C45.947 28.1133 40.7942 28.0131 30.9647 23.9757C25.8208 25.4328 23.2918 28.5902 23.3759 33.4479C23.3724 37.9055 25.5298 41.1447 29.8333 43.1621C27.7358 41.1028 26.8425 39.372 27.1434 37.9385C31.5062 43.1053 36.4757 45.0365 42.0434 43.7324C39.5888 43.8181 37.6444 43.0282 36.181 41.351C39.9444 41.2595 43.4971 39.5125 46.8425 36.0922C44.9113 37.629 42.8905 38.2109 40.7509 37.8449C46.5458 33.289 48.5965 27.974 46.9027 21.9001ZM36.385 21.1992C36.8548 21.1992 37.2356 20.8184 37.2356 20.3486C37.2356 19.8789 36.8548 19.4981 36.385 19.4981C35.9152 19.4981 35.5344 19.8789 35.5344 20.3486C35.5344 20.8184 35.9152 21.1992 36.385 21.1992Z" fill="#BA2BD2"/>
</g>
<defs>
<clipPath id="clip0_3_10">
<rect width="64" height="64" fill="white"/>
</clipPath>
</defs>
</svg>
